<?xml version="1.0" standalone="no"?>
<!DOCTYPE svg PUBLIC "-//W3C//DTD SVG 20010904//EN"
 "http://www.w3.org/TR/2001/REC-SVG-20010904/DTD/svg10.dtd">
<svg version="1.0" xmlns="http://www.w3.org/2000/svg"
 width="5000.000000pt" height="5000.000000pt" viewBox="0 0 8334.000000 8334.000000"
 preserveAspectRatio="xMidYMid meet">

<g transform="translate(0.000000,8334.000000) scale(0.20500,-0.10000)"
fill="#fff" stroke="none">
<path d="M24650 53544 c-19 -2 -91 -9 -160 -15 -562 -50 -1172 -242 -1628
-513 -399 -237 -757 -584 -983 -951 -285 -462 -466 -1031 -524 -1645 -21 -219
-16 -771 9 -1005 123 -1142 528 -2113 1236 -2965 138 -166 532 -558 698 -695
887 -730 1940 -1151 3087 -1235 77 -5 248 -10 380 -10 857 0 1639 182 2395
556 669 332 1206 753 1708 1337 346 403 678 944 901 1465 233 545 317 908 401
1732 46 454 77 644 150 927 124 480 305 857 495 1031 139 127 270 164 453 126
124 -25 212 -73 307 -168 192 -190 296 -479 362 -1006 15 -123 17 -425 20
-3523 2 -2191 0 -3386 -6 -3382 -6 3 -59 40 -118 81 -519 364 -1173 632 -1805
739 -293 49 -422 59 -773 59 -352 0 -479 -10 -775 -60 -1279 -216 -2425 -1001
-3102 -2124 -843 -1399 -861 -3171 -45 -4590 204 -355 423 -638 736 -950 362
-361 722 -621 1172 -845 1227 -610 2658 -631 3913 -58 557 255 1106 666 1510
1131 l90 103 50 -49 c221 -212 545 -431 898 -608 1124 -563 2851 -881 5243
-964 1042 -36 1429 -34 1770 10 818 105 1593 435 2243 955 144 115 418 368
446 410 l18 28 52 -99 c145 -275 314 -502 527 -710 338 -328 730 -520 1221
-595 188 -29 585 -32 808 -5 596 71 1018 256 1366 601 480 474 727 1145 831
2250 15 163 17 458 20 3187 l4 3008 1442 2 1442 3 75 23 c364 111 608 401 652
770 49 416 -215 825 -612 950 -36 11 -76 24 -90 28 -14 5 -1544 11 -3400 15
-2527 4 -3399 9 -3470 17 -558 71 -1030 230 -1474 497 -461 278 -870 668
-1171 1120 -52 78 -97 148 -100 156 -5 13 32 17 277 27 390 17 634 43 953 103
632 119 1183 343 1625 659 646 462 1092 1169 1207 1910 25 165 25 590 0 745
-84 510 -272 912 -575 1228 -389 405 -909 639 -1632 733 -249 33 -1501 29
-2280 -6 -1287 -59 -2214 -172 -2865 -351 -399 -109 -705 -263 -800 -401 -36
-51 -45 -52 -45 -3 0 56 -40 188 -85 280 -126 257 -350 432 -628 489 -98 21
-276 21 -375 0 -332 -68 -596 -321 -690 -662 l-27 -97 0 -3725 c0 -3558 1
-3729 18 -3810 37 -175 114 -316 242 -445 141 -143 276 -218 458 -256 486
-100 951 195 1073 681 18 72 19 149 20 2000 1 1392 4 1965 13 2070 65 796 326
1446 750 1871 335 335 817 566 1226 586 96 5 113 3 128 -11 36 -36 18 -125
-62 -304 -137 -307 -230 -782 -250 -1277 -50 -1226 345 -2464 1113 -3483 156
-207 280 -347 490 -557 423 -422 849 -727 1396 -999 712 -354 1366 -519 2245
-566 105 -5 592 -10 1083 -10 l893 0 -4 -2727 c-4 -2677 -6 -2812 -37 -3158
-80 -892 -348 -1343 -810 -1363 -89 -3 -115 -1 -169 17 -309 105 -525 528
-655 1281 -70 402 -100 767 -116 1395 -12 496 -41 738 -130 1100 -137 555
-394 1111 -727 1566 -725 995 -1808 1650 -3013 1823 -230 33 -344 40 -645 41
-383 0 -603 -21 -936 -90 -1063 -219 -2029 -834 -2689 -1710 -549 -730 -862
-1607 -899 -2523 -38 -949 203 -1847 710 -2640 l79 -124 -47 6 c-99 14 -393
69 -523 97 -965 212 -1583 526 -1871 951 -59 86 -116 213 -147 326 l-27 97 -5
5765 c-5 5437 -7 5774 -23 5915 -56 474 -130 821 -251 1171 -345 1006 -990
1609 -1876 1758 -236 39 -549 48 -769 21 -494 -61 -978 -265 -1361 -571 -402
-323 -719 -809 -908 -1394 -130 -403 -184 -738 -222 -1400 -11 -195 -27 -427
-36 -515 -52 -553 -147 -912 -343 -1304 -440 -877 -1193 -1534 -2106 -1836
-526 -174 -1079 -223 -1620 -144 -738 107 -1439 451 -1982 972 -136 131 -355
373 -453 502 -61 79 -160 238 -160 256 0 3 57 9 128 12 225 12 855 98 1152
157 681 137 1234 374 1680 721 264 205 528 507 715 820 343 574 473 1227 364
1829 -123 685 -561 1271 -1186 1588 -322 163 -726 277 -1163 328 -126 14 -627
27 -710 18z m568 -1855 c101 -23 151 -48 213 -106 283 -265 -142 -865 -870
-1228 -365 -183 -799 -299 -1196 -321 -100 -5 -113 -4 -143 15 -18 12 -40 37
-49 57 -17 34 -16 40 5 147 45 222 148 484 260 665 299 481 778 753 1392 791
160 10 284 4 388 -20z m19867 5 c95 -19 205 -74 249 -125 201 -235 -58 -689
-594 -1044 -419 -277 -910 -443 -1440 -487 -163 -13 -195 -7 -229 41 -30 43
-30 67 -7 184 123 604 498 1089 1005 1303 301 126 743 182 1016 128z m-13645
-9024 c1306 -98 2342 -1081 2505 -2379 24 -187 17 -584 -14 -756 -49 -283
-123 -512 -246 -761 -385 -782 -1122 -1333 -1976 -1478 -242 -42 -623 -47
-844 -11 -790 126 -1451 552 -1885 1215 -282 432 -430 936 -430 1465 0 439 86
807 280 1200 451 915 1370 1494 2400 1514 41 0 136 -4 210 -9z m11030 -16
c489 -64 918 -243 1325 -553 113 -86 342 -309 432 -421 318 -397 507 -827 585
-1335 28 -186 31 -538 5 -725 -84 -605 -353 -1147 -779 -1571 -911 -907 -2332
-1050 -3402 -342 -220 146 -459 363 -619 563 -300 377 -501 840 -573 1322 -22
149 -29 459 -15 613 50 531 240 1010 570 1435 93 120 297 327 421 427 584 471
1322 682 2050 587z"/>
<path d="M55426 44590 c-612 -37 -1133 -167 -1587 -396 -784 -396 -1323 -1078
-1599 -2021 -175 -598 -221 -1350 -124 -2048 143 -1036 579 -2000 1265 -2800
132 -154 410 -432 564 -564 819 -703 1809 -1142 2875 -1275 314 -39 792 -51
1085 -26 1166 97 2208 523 3089 1263 322 270 747 732 883 959 83 139 132 351
119 520 -30 398 -305 724 -693 820 -70 17 -116 22 -223 21 -158 -1 -247 -20
-378 -83 -155 -74 -233 -140 -377 -320 -627 -784 -1492 -1257 -2490 -1361
-173 -18 -548 -16 -730 5 -809 92 -1539 435 -2119 996 -208 202 -394 428 -542
662 l-65 103 208 7 c1345 43 2342 399 3029 1083 242 240 403 455 545 729 243
469 339 897 309 1388 -17 293 -57 506 -140 760 -185 564 -550 994 -1064 1258
-294 150 -694 263 -1076 305 -178 19 -563 27 -764 15z m492 -1955 c257 -52
373 -208 316 -428 -82 -318 -487 -700 -997 -942 -345 -163 -775 -273 -1138
-292 l-125 -6 -37 32 c-51 46 -55 77 -23 222 138 621 505 1080 1034 1295 109
44 319 99 437 113 50 6 101 13 115 15 76 11 347 5 418 -9z"/>
<path d="M42275 32641 c-99 -24 -154 -94 -175 -222 -5 -36 -10 -232 -10 -449
l0 -384 -57 55 c-115 111 -219 174 -348 211 -70 20 -102 23 -250 23 -199 0
-250 -11 -395 -82 -82 -40 -108 -60 -190 -142 -143 -144 -215 -291 -256 -521
-24 -129 -24 -401 0 -530 24 -137 81 -298 140 -398 62 -105 194 -243 281 -294
139 -80 246 -108 414 -108 232 1 391 66 566 232 l92 88 7 -67 c17 -165 103
-253 246 -253 108 0 189 54 227 150 17 42 18 118 21 1225 3 1220 1 1278 -38
1355 -47 91 -162 138 -275 111z m-519 -1190 c128 -63 224 -185 276 -351 21
-67 23 -94 23 -260 0 -166 -2 -193 -23 -260 -67 -214 -198 -341 -385 -372
-191 -32 -383 76 -472 264 -59 126 -70 182 -70 373 0 196 11 250 77 385 88
180 219 262 409 257 85 -2 103 -6 165 -36z"/>
<path d="M53185 32644 c-358 -36 -597 -137 -746 -316 -115 -138 -164 -294
-156 -493 8 -188 53 -305 165 -426 147 -159 345 -250 786 -360 339 -84 430
-119 523 -203 70 -63 97 -127 98 -231 0 -100 -31 -173 -103 -243 -106 -103
-251 -153 -447 -153 -292 1 -430 99 -560 401 -76 177 -148 240 -271 240 -93 0
-178 -52 -219 -133 -47 -95 -30 -259 43 -402 146 -289 423 -469 792 -515 121
-14 379 -12 490 5 361 54 630 229 755 490 64 133 79 204 79 370 0 239 -49 370
-189 511 -157 158 -319 228 -825 359 -135 35 -267 71 -295 80 -289 98 -384
301 -223 471 90 96 226 144 403 144 108 0 205 -19 272 -54 71 -35 158 -136
223 -255 63 -117 120 -188 167 -207 18 -8 61 -14 97 -14 86 0 156 36 202 103
56 81 66 150 39 266 -63 267 -338 483 -695 546 -85 15 -330 27 -405 19z"/>
<path d="M56911 32639 c-110 -21 -201 -96 -263 -214 -20 -38 -77 -173 -126
-300 -50 -126 -241 -614 -426 -1083 -185 -469 -340 -872 -346 -895 -14 -61
-12 -143 4 -181 22 -52 86 -117 141 -142 64 -31 170 -33 231 -5 76 35 117 110
245 455 l84 226 554 -3 554 -2 78 -205 c90 -232 153 -370 193 -417 43 -50 100
-73 187 -73 87 0 138 20 192 74 87 87 103 189 54 336 -14 41 -190 482 -392
980 -202 498 -394 973 -426 1056 -105 267 -191 363 -354 393 -67 13 -121 13
-184 0z m297 -1164 l197 -540 -394 -3 c-217 -1 -396 0 -398 2 -2 2 81 242 186
532 218 610 204 571 208 558 2 -5 92 -252 201 -549z"/>
<path d="M60719 32640 c-189 -17 -382 -74 -513 -151 -39 -23 -107 -78 -152
-123 -68 -67 -89 -97 -127 -176 -67 -140 -88 -271 -67 -420 22 -162 74 -272
179 -378 147 -150 343 -237 763 -341 353 -87 444 -122 532 -206 75 -72 91
-113 91 -230 0 -92 -2 -104 -30 -153 -59 -107 -185 -194 -331 -228 -81 -18
-258 -21 -341 -4 -188 38 -303 151 -408 400 -19 47 -51 106 -70 131 -108 148
-333 125 -421 -41 -30 -55 -25 -203 8 -298 40 -110 105 -216 187 -304 209
-222 472 -318 876 -318 317 0 552 62 752 198 98 67 203 186 256 294 65 128 79
188 84 353 7 210 -25 334 -120 467 -136 189 -355 295 -891 433 -276 70 -354
96 -437 145 -106 63 -158 140 -159 236 0 64 36 139 92 189 55 51 165 101 251
115 89 16 273 8 344 -14 110 -34 199 -121 287 -283 100 -183 148 -223 264
-223 271 0 340 329 126 600 -197 250 -571 370 -1025 330z"/>
<path d="M39805 32601 c-56 -25 -102 -67 -128 -115 -31 -58 -30 -183 1 -243
42 -80 128 -126 237 -126 81 0 125 16 180 64 54 48 75 99 75 187 0 117 -39
183 -135 228 -64 30 -170 33 -230 5z"/>
<path d="M26945 32586 c-99 -25 -157 -75 -192 -165 -17 -43 -18 -121 -21
-1136 -3 -1139 -1 -1219 39 -1303 27 -55 81 -99 149 -120 49 -15 112 -17 575
-17 452 0 535 2 635 18 253 40 432 127 590 286 266 268 385 642 367 1156 -15
426 -124 732 -342 964 -164 174 -327 259 -590 308 -111 21 -1134 29 -1210 9z
m1040 -465 c182 -39 295 -113 389 -256 79 -118 117 -255 136 -485 16 -201 -4
-433 -51 -595 -56 -188 -185 -360 -319 -422 -119 -56 -175 -63 -524 -63 l-316
0 0 926 0 926 293 -5 c246 -4 308 -8 392 -26z"/>
<path d="M47941 32567 c-55 -21 -112 -76 -139 -136 -25 -55 -26 -62 -30 -322
l-4 -267 -79 -4 c-135 -8 -209 -74 -209 -186 0 -120 91 -192 245 -192 l43 0 4
-602 c4 -528 7 -614 22 -688 23 -109 58 -183 115 -240 95 -95 214 -130 441
-129 218 0 361 32 444 101 99 81 100 229 3 299 -48 35 -92 37 -248 12 -101
-16 -109 -16 -153 1 -100 38 -106 79 -106 752 l0 491 118 6 c221 11 292 58
292 192 0 64 -16 102 -60 138 -44 38 -89 47 -227 47 l-121 0 -4 278 c-4 307
-6 319 -70 384 -19 19 -52 43 -74 53 -48 23 -156 29 -203 12z"/>
<path d="M30267 31880 c-430 -68 -702 -320 -798 -739 -26 -111 -36 -363 -20
-483 48 -361 231 -628 525 -764 157 -72 319 -99 559 -91 196 6 281 23 423 84
238 103 404 290 404 454 0 99 -52 155 -153 166 -82 8 -118 -9 -226 -109 -117
-109 -246 -197 -326 -223 -47 -16 -88 -20 -185 -20 -124 0 -126 0 -203 37
-104 50 -171 118 -226 228 -38 79 -71 201 -71 266 l0 24 538 0 c295 0 566 5
600 10 229 33 290 109 280 349 -17 383 -281 695 -671 792 -94 23 -353 34 -450
19z m291 -374 c181 -49 289 -198 326 -453 l6 -43 -460 0 -461 0 6 38 c43 252
150 401 330 458 54 17 188 17 253 0z"/>
<path d="M33531 31879 c-128 -14 -236 -45 -356 -103 -322 -157 -500 -454 -521
-871 -14 -271 54 -528 191 -720 123 -173 335 -309 560 -361 115 -27 426 -27
540 0 335 78 582 299 691 620 74 217 82 500 20 732 -110 407 -423 662 -865
704 -119 11 -140 11 -260 -1z m224 -389 c90 -15 194 -70 254 -136 56 -61 112
-167 137 -259 25 -93 31 -351 9 -456 -40 -201 -134 -335 -283 -407 -65 -31
-86 -36 -172 -40 -80 -4 -110 -1 -167 16 -159 49 -278 186 -328 380 -38 150
-36 369 5 519 76 278 286 425 545 383z"/>
<path d="M35842 31880 c-307 -43 -543 -190 -691 -431 -214 -348 -213 -917 3
-1242 149 -225 379 -360 671 -396 477 -58 905 117 1060 434 82 168 55 321 -70
392 -44 25 -132 31 -182 12 -44 -16 -110 -87 -161 -173 -126 -213 -311 -311
-523 -279 -220 34 -369 199 -419 463 -16 84 -13 285 5 375 35 168 114 299 225
373 84 57 153 76 265 75 180 -2 282 -65 428 -263 105 -144 162 -175 270 -151
151 34 220 165 167 320 -72 215 -294 391 -588 467 -77 21 -127 26 -247 29 -82
2 -178 0 -213 -5z"/>
<path d="M38122 31880 c-420 -59 -707 -316 -812 -725 -45 -177 -50 -423 -11
-610 51 -248 189 -459 384 -588 289 -192 782 -211 1132 -43 314 150 489 478
351 659 -45 59 -98 87 -168 87 -31 0 -69 -5 -85 -11 -44 -16 -110 -87 -161
-173 -66 -111 -153 -198 -236 -237 -238 -112 -520 -18 -635 210 -57 113 -73
184 -79 347 -3 117 -1 170 12 234 64 314 278 489 553 450 141 -19 238 -87 356
-249 111 -151 169 -185 275 -163 246 52 254 324 16 557 -113 111 -264 191
-445 236 -96 23 -341 34 -447 19z"/>
<path d="M39845 31881 c-77 -20 -130 -67 -167 -146 l-23 -50 -3 -813 c-3 -892
-3 -891 56 -977 39 -57 117 -95 195 -95 87 0 135 18 187 70 84 84 81 37 78
995 -3 839 -3 840 -25 880 -27 52 -78 100 -125 119 -45 19 -133 28 -173 17z"/>
<path d="M43804 31875 c-285 -44 -509 -185 -648 -408 -197 -315 -217 -821 -46
-1162 136 -272 371 -438 694 -490 107 -18 332 -20 442 -4 278 38 540 202 636
397 41 83 47 182 12 229 -43 59 -140 87 -222 64 -18 -6 -78 -51 -140 -107
-198 -180 -302 -233 -470 -242 -169 -8 -290 39 -391 154 -77 87 -141 251 -141
360 l0 43 583 3 c569 4 583 4 647 26 99 33 128 55 158 120 25 53 27 66 26 182
-1 104 -6 139 -28 213 -84 280 -277 483 -550 580 -153 54 -379 71 -562 42z
m317 -371 c107 -31 203 -114 254 -218 29 -59 65 -194 65 -243 l0 -33 -455 0
-455 0 0 23 c0 41 39 180 69 242 31 67 104 153 156 185 96 59 250 78 366 44z"/>
<path d="M45535 31881 c-70 -18 -118 -56 -149 -119 -33 -64 -37 -185 -34 -973
l3 -774 22 -55 c26 -63 80 -122 135 -145 22 -8 66 -15 105 -15 126 1 203 58
246 184 6 19 13 240 17 561 6 413 10 542 22 585 36 138 123 247 246 307 73 36
80 38 176 38 118 0 163 -13 218 -63 48 -44 73 -90 100 -190 20 -73 22 -107 27
-652 6 -556 7 -576 27 -620 48 -103 118 -150 223 -150 89 0 139 18 187 66 81
80 79 62 79 794 0 732 0 725 -79 885 -96 194 -271 309 -513 336 -275 30 -535
-70 -703 -273 l-48 -56 -4 81 c-6 115 -46 185 -130 228 -42 21 -129 32 -173
20z"/>
<path d="M49785 31880 c-330 -47 -577 -216 -715 -490 -85 -168 -114 -309 -114
-545 0 -201 14 -299 65 -439 86 -239 278 -440 502 -526 166 -65 230 -75 472
-74 207 0 226 2 320 27 193 52 382 168 469 286 112 153 120 305 19 364 -41 23
-130 33 -174 18 -19 -6 -81 -54 -139 -107 -196 -178 -303 -234 -463 -242 -118
-6 -189 8 -272 52 -148 78 -244 240 -269 454 l-7 52 543 0 c322 0 569 4 608
10 214 34 274 105 272 320 -2 134 -26 234 -91 365 -112 228 -309 384 -567 451
-79 21 -129 26 -249 29 -82 2 -177 0 -210 -5z m347 -397 c146 -69 234 -210
263 -420 l7 -53 -460 0 -459 0 8 53 c30 189 114 332 237 404 73 43 119 53 232
50 94 -2 112 -6 172 -34z"/>
<path d="M54934 30354 c-127 -46 -204 -196 -174 -338 17 -84 62 -144 138 -183
56 -29 73 -33 140 -32 88 1 122 11 185 55 68 48 102 126 102 229 -1 118 -46
195 -146 250 -65 35 -178 44 -245 19z"/>
<path d="M58894 30354 c-61 -22 -119 -77 -150 -141 -36 -72 -39 -183 -7 -253
45 -102 141 -160 263 -159 86 1 121 11 183 55 68 48 102 126 101 229 0 118
-45 195 -145 250 -65 35 -178 44 -245 19z"/>
</g>
</svg>
